<?xml version="1.0" encoding="utf-8" ?>
<svg baseProfile="full" height="531.49605" version="1.1" width="496.06298000000004" xmlns="http://www.w3.org/2000/svg" xmlns:ev="http://www.w3.org/2001/xml-events" xmlns:xlink="http://www.w3.org/1999/xlink"><defs /><rect fill="white" height="531.49605" opacity="1" stroke-width="0" width="496.06298000000004" x="0.0" y="0.0" /><g><g id="vlines" stroke="lightgray"><line x1="0.0" x2="0.0" y1="70.86614" y2="496.06298000000004" /><rect fill="#76e9ff" height="425.19684" opacity="0.8" stroke="lightgray" stroke-width="0" width="7.086614000000001" x="14.173228000000002" y="70.86614" /><text fill="black" font-family="Verdana" font-size="12" stroke="black" stroke-width="0" x="3.543307" y="67.322833">F 26</text><line x1="35.43307" x2="35.43307" y1="70.86614" y2="496.06298000000004" /><rect fill="gray" height="425.19684" opacity="0.7" stroke="lightgray" stroke-width="1" width="35.43307" x="35.43307" y="70.86614" /><text fill="black" font-family="Verdana" font-size="12" stroke="black" stroke-width="0" x="38.976377" y="67.322833">S 27</text><line x1="70.86614" x2="70.86614" y1="70.86614" y2="496.06298000000004" /><rect fill="gray" height="425.19684" opacity="0.7" stroke="lightgray" stroke-width="1" width="35.43307" x="70.86614" y="70.86614" /><text fill="black" font-family="Verdana" font-size="12" stroke="black" stroke-width="0" x="74.409447" y="67.322833">S 28</text><line x1="106.29921" x2="106.29921" y1="70.86614" y2="496.06298000000004" /><text fill="black" font-family="Verdana" font-size="12" stroke="black" stroke-width="0" x="109.842517" y="67.322833">M 29</text><text fill="black" font-family="Verdana" font-size="16" font-weight="bold" stroke="black" stroke-width="0" x="109.842517" y="53.149605">48</text><line x1="141.73228" x2="141.73228" y1="70.86614" y2="496.06298000000004" /><text fill="black" font-family="Verdana" font-size="12" stroke="black" stroke-width="0" x="145.275587" y="67.322833">T 30</text><line x1="177.16535" x2="177.16535" y1="70.86614" y2="496.06298000000004" /><text fill="black" font-family="Verdana" font-size="12" stroke="black" stroke-width="0" x="180.708657" y="67.322833">W 01</text><text fill="#800000" font-family="Verdana" font-size="18" font-weight="bold" stroke="#800000" stroke-width="0" x="180.708657" y="35.43307">December</text><line x1="212.59842" x2="212.59842" y1="70.86614" y2="496.06298000000004" /><text fill="black" font-family="Verdana" font-size="12" stroke="black" stroke-width="0" x="216.141727" y="67.322833">T 02</text><line x1="248.03149000000002" x2="248.03149000000002" y1="70.86614" y2="496.06298000000004" /><text fill="black" font-family="Verdana" font-size="12" stroke="black" stroke-width="0" x="251.574797" y="67.322833">F 03</text><line x1="283.46456" x2="283.46456" y1="70.86614" y2="496.06298000000004" /><rect fill="gray" height="425.19684" opacity="0.7" stroke="lightgray" stroke-width="1" width="35.43307" x="283.46456" y="70.86614" /><text fill="black" font-family="Verdana" font-size="12" stroke="black" stroke-width="0" x="287.007867" y="67.322833">S 04</text><line x1="318.89763" x2="318.89763" y1="70.86614" y2="496.06298000000004" /><rect fill="gray" height="425.19684" opacity="0.7" stroke="lightgray" stroke-width="1" width="35.43307" x="318.89763" y="70.86614" /><text fill="black" font-family="Verdana" font-size="12" stroke="black" stroke-width="0" x="322.440937" y="67.322833">S 05</text><line x1="354.3307" x2="354.3307" y1="70.86614" y2="496.06298000000004" /><text fill="black" font-family="Verdana" font-size="12" stroke="black" stroke-width="0" x="357.874007" y="67.322833">M 06</text><text fill="black" font-family="Verdana" font-size="16" font-weight="bold" stroke="black" stroke-width="0" x="357.874007" y="53.149605">49</text><line x1="389.76377" x2="389.76377" y1="70.86614" y2="496.06298000000004" /><text fill="black" font-family="Verdana" font-size="12" stroke="black" stroke-width="0" x="393.307077" y="67.322833">T 07</text><line x1="425.19684" x2="425.19684" y1="70.86614" y2="496.06298000000004" /><text fill="black" font-family="Verdana" font-size="12" stroke="black" stroke-width="0" x="428.740147" y="67.322833">W 08</text><line x1="460.62991" x2="460.62991" y1="70.86614" y2="496.06298000000004" /><text fill="black" font-family="Verdana" font-size="12" stroke="black" stroke-width="0" x="464.173217" y="67.322833">T 09</text><line x1="496.06298000000004" x2="496.06298000000004" y1="70.86614" y2="496.06298000000004" /></g><g id="hlines" stroke="lightgray"><line x1="0.0" x2="496.06298000000004" y1="70.86614" y2="70.86614" /><line x1="0.0" x2="496.06298000000004" y1="106.29921" y2="106.29921" /><line x1="0.0" x2="496.06298000000004" y1="141.73228" y2="141.73228" /><line x1="0.0" x2="496.06298000000004" y1="177.16535" y2="177.16535" /><line x1="0.0" x2="496.06298000000004" y1="212.59842" y2="212.59842" /><line x1="0.0" x2="496.06298000000004" y1="248.03149000000002" y2="248.03149000000002" /><line x1="0.0" x2="496.06298000000004" y1="283.46456" y2="283.46456" /><line x1="0.0" x2="496.06298000000004" y1="318.89763" y2="318.89763" /><line x1="0.0" x2="496.06298000000004" y1="354.3307" y2="354.3307" /><line x1="0.0" x2="496.06298000000004" y1="389.76377" y2="389.76377" /><line x1="0.0" x2="496.06298000000004" y1="425.19684" y2="425.19684" /><line x1="0.0" x2="496.06298000000004" y1="460.62991" y2="460.62991" /><line x1="0.0" x2="496.06298000000004" y1="496.06298000000004" y2="496.06298000000004" /></g><line stroke="black" x1="0.0" x2="496.06298000000004" y1="70.86614" y2="70.86614" /><line stroke="black" x1="0.0" x2="496.06298000000004" y1="496.06298000000004" y2="496.06298000000004" /></g><g><g><text fill="black" font-family="Verdana" font-size="18" stroke="black" stroke-width="0" x="10.629921" y="95.669289">project</text><rect fill="purple" height="403.936998" opacity="0.5" stroke="lightgray" stroke-width="0" width="7.086614000000001" x="2.8346456" y="88.582675" /><g><g id="test1"><rect fill="#FFFF90" height="28.346456" opacity="0.85" stroke="#FFFF90" stroke-width="2" width="28.346456" x="3.543307" y="109.842517" /><rect fill="#909090" height="10.629921" opacity="0.2" stroke="#FFFF90" stroke-width="1" width="28.346456" x="3.543307" y="127.559052" /><text fill="black" font-family="Verdana" font-size="15" stroke="black" stroke-width="0" x="7.086614" y="124.015745">test1</text></g><g id="test2"><rect fill="#FFFF90" height="28.346456" opacity="0.85" stroke="#FFFF90" stroke-width="2" width="63.779526" x="109.842517" y="145.275587" /><rect fill="#909090" height="10.629921" opacity="0.2" stroke="#FFFF90" stroke-width="1" width="63.779526" x="109.842517" y="162.992122" /><rect fill="#0000FF" height="14.173228" opacity="0.35" stroke="#FFFF90" stroke-width="1" width="17.716535" x="109.842517" y="145.275587" /><text fill="black" font-family="Verdana" font-size="15" stroke="black" stroke-width="0" x="113.385824" y="159.448815">test2</text><text fill="purple" font-family="Verdana" font-size="10" stroke="black" stroke-width="0" x="113.385824" y="171.8503895">Enrico</text></g><g id="test3"><rect fill="#FFFF90" height="28.346456" opacity="0.85" stroke="#FFFF90" stroke-width="2" width="63.779526" x="180.708657" y="180.708657" /><rect fill="#909090" height="10.629921" opacity="0.2" stroke="#FFFF90" stroke-width="1" width="63.779526" x="180.708657" y="198.425192" /><rect fill="#0000FF" height="14.173228" opacity="0.35" stroke="#FFFF90" stroke-width="1" width="17.716535" x="180.708657" y="180.708657" /><text fill="black" font-family="Verdana" font-size="15" stroke="black" stroke-width="0" x="184.251964" y="194.881885">test3</text><text fill="purple" font-family="Verdana" font-size="10" stroke="black" stroke-width="0" x="184.251964" y="207.2834595">Enrico</text></g><g id="test3"><rect fill="#FFFF90" height="28.346456" opacity="0.85" stroke="#FFFF90" stroke-width="2" width="63.779526" x="180.708657" y="216.141727" /><rect fill="#909090" height="10.629921" opacity="0.2" stroke="#FFFF90" stroke-width="1" width="63.779526" x="180.708657" y="233.858262" /><rect fill="#0000FF" height="14.173228" opacity="0.35" stroke="#FFFF90" stroke-width="1" width="17.716535" x="180.708657" y="216.141727" /><text fill="black" font-family="Verdana" font-size="15" stroke="black" stroke-width="0" x="184.251964" y="230.314955">test3</text><text fill="purple" font-family="Verdana" font-size="10" stroke="black" stroke-width="0" x="184.251964" y="242.7165295">Enrico</text></g><g id="test4"><rect fill="#FFFF90" height="28.346456" opacity="0.85" stroke="#FFFF90" stroke-width="2" width="205.511806" x="251.574797" y="251.574797" /><rect fill="#909090" height="10.629921" opacity="0.2" stroke="#FFFF90" stroke-width="1" width="205.511806" x="251.574797" y="269.291332" /><rect fill="#0000FF" height="14.173228" opacity="0.35" stroke="#FFFF90" stroke-width="1" width="17.716535" x="251.574797" y="251.574797" /><text fill="black" font-family="Verdana" font-size="15" stroke="black" stroke-width="0" x="255.118104" y="265.748025">test4</text><text fill="purple" font-family="Verdana" font-size="10" stroke="black" stroke-width="0" x="255.118104" y="278.1495995">Enrico</text></g><g id="m1"><polygon fill="#FF3030" opacity="0.85" points="194.881885,290.551174 205.511806,301.18109499999997 194.881885,311.811016 184.251964,301.18109499999997" stroke="#FF3030" stroke-width="2" /><text fill="black" font-family="Verdana" font-size="15" stroke="black" stroke-width="0" x="184.251964" y="301.18109499999997">m1</text></g><g id="m2"><polygon fill="#FF3030" opacity="0.85" points="265.748025,361.417314 276.377946,372.047235 265.748025,382.677156 255.118104,372.047235" stroke="#FF3030" stroke-width="2" /><text fill="black" font-family="Verdana" font-size="15" stroke="black" stroke-width="0" x="255.118104" y="372.047235">m2</text></g><g id="m2"><polygon fill="#FF3030" opacity="0.85" points="478.346445,432.283454 488.976366,442.913375 478.346445,453.543296 467.716524,442.913375" stroke="#FF3030" stroke-width="2" /><text fill="black" font-family="Verdana" font-size="15" stroke="black" stroke-width="0" x="467.716524" y="442.913375">m2</text></g></g></g><g><g><line stroke="black" stroke-dasharray="5,3" x1="28.346456" x2="106.29921" y1="124.015745" y2="124.015745" /><marker id="id1" markerHeight="10" markerWidth="10" refX="5" refY="5"><circle cx="5" cy="5" fill="#000000" opacity="0.5" r="5" stroke-width="0" /></marker><line marker-end="url(#id1)" stroke="black" stroke-dasharray="5,3" x1="106.29921" x2="106.29921" y1="124.015745" y2="159.448815" /></g><g><line stroke="black" stroke-dasharray="5,3" x1="209.055113" x2="212.59842" y1="301.18109499999997" y2="301.18109499999997" /><line stroke="black" stroke-dasharray="5,3" x1="212.59842" x2="212.59842" y1="301.18109499999997" y2="336.614165" /><line stroke="black" stroke-dasharray="5,3" x1="177.16535" x2="212.59842" y1="336.614165" y2="336.614165" /><marker id="id2" markerHeight="10" markerWidth="10" refX="5" refY="5"><circle cx="5" cy="5" fill="#000000" opacity="0.5" r="5" stroke-width="0" /></marker><line marker-end="url(#id2)" stroke="black" stroke-dasharray="5,3" x1="177.16535" x2="177.16535" y1="336.614165" y2="194.881885" /></g><g><line stroke="black" stroke-dasharray="5,3" x1="209.055113" x2="212.59842" y1="301.18109499999997" y2="301.18109499999997" /><line stroke="black" stroke-dasharray="5,3" x1="212.59842" x2="212.59842" y1="301.18109499999997" y2="336.614165" /><line stroke="black" stroke-dasharray="5,3" x1="177.16535" x2="212.59842" y1="336.614165" y2="336.614165" /><marker id="id3" markerHeight="10" markerWidth="10" refX="5" refY="5"><circle cx="5" cy="5" fill="#000000" opacity="0.5" r="5" stroke-width="0" /></marker><line marker-end="url(#id3)" stroke="black" stroke-dasharray="5,3" x1="177.16535" x2="177.16535" y1="336.614165" y2="230.314955" /></g><g><line stroke="black" stroke-dasharray="5,3" x1="240.944876" x2="248.03149" y1="194.881885" y2="194.881885" /><marker id="id4" markerHeight="10" markerWidth="10" refX="5" refY="5"><circle cx="5" cy="5" fill="#000000" opacity="0.5" r="5" stroke-width="0" /></marker><line marker-end="url(#id4)" stroke="black" stroke-dasharray="5,3" x1="248.03149" x2="248.03149" y1="194.881885" y2="265.748025" /></g><g><line stroke="black" stroke-dasharray="5,3" x1="28.346456" x2="194.881885" y1="124.015745" y2="124.015745" /><marker id="id5" markerHeight="10" markerWidth="10" refX="5" refY="5"><circle cx="5" cy="5" fill="#000000" opacity="0.5" r="5" stroke-width="0" /></marker><line marker-end="url(#id5)" stroke="black" stroke-dasharray="5,3" x1="194.881885" x2="194.881885" y1="124.015745" y2="283.46456" /><line stroke="black" stroke-dasharray="5,3" x1="170.078736" x2="194.881885" y1="159.448815" y2="159.448815" /><marker id="id6" markerHeight="10" markerWidth="10" refX="5" refY="5"><circle cx="5" cy="5" fill="#000000" opacity="0.5" r="5" stroke-width="0" /></marker><line marker-end="url(#id6)" stroke="black" stroke-dasharray="5,3" x1="194.881885" x2="194.881885" y1="159.448815" y2="283.46456" /></g><g><line stroke="black" stroke-dasharray="5,3" x1="240.944876" x2="265.748025" y1="194.881885" y2="194.881885" /><marker id="id7" markerHeight="10" markerWidth="10" refX="5" refY="5"><circle cx="5" cy="5" fill="#000000" opacity="0.5" r="5" stroke-width="0" /></marker><line marker-end="url(#id7)" stroke="black" stroke-dasharray="5,3" x1="265.748025" x2="265.748025" y1="194.881885" y2="354.3307" /><line stroke="black" stroke-dasharray="5,3" x1="240.944876" x2="265.748025" y1="230.314955" y2="230.314955" /><marker id="id8" markerHeight="10" markerWidth="10" refX="5" refY="5"><circle cx="5" cy="5" fill="#000000" opacity="0.5" r="5" stroke-width="0" /></marker><line marker-end="url(#id8)" stroke="black" stroke-dasharray="5,3" x1="265.748025" x2="265.748025" y1="230.314955" y2="354.3307" /></g><g><line stroke="black" stroke-dasharray="5,3" x1="453.543296" x2="478.346445" y1="265.748025" y2="265.748025" /><marker id="id9" markerHeight="10" markerWidth="10" refX="5" refY="5"><circle cx="5" cy="5" fill="#000000" opacity="0.5" r="5" stroke-width="0" /></marker><line marker-end="url(#id9)" stroke="black" stroke-dasharray="5,3" x1="478.346445" x2="478.346445" y1="265.748025" y2="425.19684" /></g></g></g></svg>